# MagicaVoxel @ Ephtracy

# group
o 

# material
mtllib cowboy man.mtl
usemtl palette

# normals
vn -1 0 0
vn 1 0 0
vn 0 0 1
vn 0 0 -1
vn 0 -1 0
vn 0 1 0

# texcoords
vt 0.138672 0.5
vt 0.216797 0.5
vt 0.240234 0.5
vt 0.271484 0.5
vt 0.294922 0.5
vt 0.337891 0.5
vt 0.427734 0.5
vt 0.431641 0.5
vt 0.572266 0.5
vt 0.958984 0.5

# verts
v -0.3 1.1 0.1
v -0.3 1.1 -0.1
v -0.3 1.1 -0.7
v -0.3 1.3 0.1
v -0.3 1.3 -0.1
v -0.3 1.3 -0.7
v -0.2 1.5 -0.6
v -0.2 1.5 -0.7
v -0.2 1.7 -0.6
v -0.2 1.7 -0.7
v -0.2 1.8 -0.3
v -0.2 1.8 -0.9
v -0.2 1.9 -0.3
v -0.2 1.9 -0.4
v -0.2 1.9 -0.8
v -0.2 1.9 -0.9
v -0.2 2 -0.4
v -0.2 2 -0.8
v -0.1 0.6 -0.4
v -0.1 0.6 -0.8
v -0.1 0.7 -0.4
v -0.1 0.7 -0.8
v -0.1 1.1 -0.4
v -0.1 1.1 -0.7
v -0.1 1.3 -0.2
v -0.1 1.3 -0.3
v -0.1 1.3 -0.7
v -0.1 1.3 -0.8
v -0.1 1.3 -0.9
v -0.1 1.4 -0.6
v -0.1 1.4 -0.8
v -0.1 1.5 -0.2
v -0.1 1.5 -0.3
v -0.1 1.5 -0.4
v -0.1 1.5 -0.6
v -0.1 1.5 -0.7
v -0.1 1.6 -0.3
v -0.1 1.6 -0.4
v -0.1 1.7 -0.6
v -0.1 1.7 -0.7
v -0.1 1.8 -0.2
v -0.1 1.8 -0.3
v -0.1 1.8 -0.9
v -0.1 1.8 -1
v -0.1 1.9 -0.2
v -0.1 1.9 -0.3
v -0.1 1.9 -0.9
v -0.1 1.9 -1
v 0 0 -0.5
v 0 0 -0.7
v 0 0.2 -0.5
v 0 0.2 -0.7
v 0 0.6 -0.5
v 0 0.6 -0.7
v 0 1.9 -0.4
v 0 1.9 -0.8
v 0 2 -0.4
v 0 2 -0.8
v 0 2.2 -0.4
v 0 2.2 -0.8
v 0.1 1.5 -0.2
v 0.1 1.5 -0.3
v 0.1 1.6 -0.2
v 0.1 1.6 -0.3
v 0.2 1.6 -0.2
v 0.2 1.6 -0.3
v 0.2 1.7 -0.2
v 0.2 1.7 -0.3
v 0.4 0 -0.5
v 0.4 0 -0.7
v 0.4 0.2 -0.5
v 0.4 0.2 -0.7
v 0.4 0.6 -0.5
v 0.4 0.6 -0.7
v 0.4 2.1 -0.4
v 0.4 2.1 -0.8
v 0.4 2.2 -0.4
v 0.4 2.2 -0.8
v 0.6 1.2 -0.2
v 0.6 1.2 -0.3
v 0.6 1.3 -0.3
v 0.6 1.4 -0.2
v 0.6 1.4 -0.3
v 0.7 0.5 -0.5
v 0.7 0.5 -0.7
v 0.7 0.6 -0.5
v 0.7 0.6 -0.7
v 0.7 1.9 -0.4
v 0.7 1.9 -0.8
v 0.7 2 -0.4
v 0.7 2 -0.8
v -0.1 1.1 0.1
v -0.1 1.1 -0.1
v -0.1 1.1 -0.4
v -0.1 1.2 -0.2
v -0.1 1.2 -0.3
v -0.1 1.3 0.1
v -0.1 1.3 -0.1
v -0.1 1.3 -0.2
v -0.1 1.3 -0.3
v -0.1 1.3 -0.4
v -0.1 1.9 -0.4
v -0.1 1.9 -0.8
v -0.1 2 -0.4
v -0.1 2 -0.8
v 0 1.2 -0.2
v 0 1.2 -0.3
v 0 1.3 -0.3
v 0 1.4 -0.2
v 0 1.4 -0.3
v 0.2 0 -0.5
v 0.2 0 -0.7
v 0.2 0.2 -0.5
v 0.2 0.2 -0.7
v 0.2 0.6 -0.5
v 0.2 0.6 -0.7
v 0.2 2.1 -0.4
v 0.2 2.1 -0.8
v 0.2 2.2 -0.4
v 0.2 2.2 -0.8
v 0.4 1.6 -0.2
v 0.4 1.6 -0.3
v 0.4 1.7 -0.2
v 0.4 1.7 -0.3
v 0.5 1.5 -0.2
v 0.5 1.5 -0.3
v 0.5 1.6 -0.2
v 0.5 1.6 -0.3
v 0.6 0 -0.5
v 0.6 0 -0.7
v 0.6 0.2 -0.5
v 0.6 0.2 -0.7
v 0.6 0.6 -0.5
v 0.6 0.6 -0.7
v 0.6 1.9 -0.4
v 0.6 1.9 -0.8
v 0.6 2 -0.4
v 0.6 2 -0.8
v 0.6 2.2 -0.4
v 0.6 2.2 -0.8
v 0.7 0.6 -0.4
v 0.7 0.6 -0.5
v 0.7 0.6 -0.7
v 0.7 0.6 -0.8
v 0.7 0.7 -0.4
v 0.7 0.7 -0.5
v 0.7 0.7 -0.7
v 0.7 0.7 -0.8
v 0.7 1.2 -0.2
v 0.7 1.2 -0.3
v 0.7 1.3 -0.3
v 0.7 1.3 -0.4
v 0.7 1.3 -0.5
v 0.7 1.3 -0.7
v 0.7 1.3 -0.8
v 0.7 1.3 -0.9
v 0.7 1.4 -0.6
v 0.7 1.4 -0.8
v 0.7 1.5 -0.2
v 0.7 1.5 -0.3
v 0.7 1.5 -0.4
v 0.7 1.5 -0.6
v 0.7 1.5 -0.7
v 0.7 1.6 -0.3
v 0.7 1.6 -0.4
v 0.7 1.7 -0.6
v 0.7 1.7 -0.7
v 0.7 1.8 -0.2
v 0.7 1.8 -0.3
v 0.7 1.8 -0.9
v 0.7 1.8 -1
v 0.7 1.9 -0.2
v 0.7 1.9 -0.3
v 0.7 1.9 -0.9
v 0.7 1.9 -1
v 0.8 1.5 -0.6
v 0.8 1.5 -0.7
v 0.8 1.7 -0.6
v 0.8 1.7 -0.7
v 0.8 1.8 -0.3
v 0.8 1.8 -0.9
v 0.8 1.9 -0.3
v 0.8 1.9 -0.4
v 0.8 1.9 -0.8
v 0.8 1.9 -0.9
v 0.8 2 -0.4
v 0.8 2 -0.8
v 0.9 0.5 -0.5
v 0.9 0.5 -0.7
v 0.9 0.7 -0.5
v 0.9 0.7 -0.7
v 0.9 1.3 -0.5
v 0.9 1.3 -0.7
v -0.3 1.1 0.1
v -0.3 1.3 0.1
v -0.1 1.1 0.1
v -0.1 1.3 0.1
v -0.1 1.2 -0.2
v -0.1 1.3 -0.2
v -0.1 1.5 -0.2
v -0.1 1.8 -0.2
v -0.1 1.9 -0.2
v 0 1.2 -0.2
v 0 1.4 -0.2
v 0.1 1.5 -0.2
v 0.1 1.6 -0.2
v 0.2 1.5 -0.2
v 0.2 1.6 -0.2
v 0.2 1.7 -0.2
v 0.4 1.5 -0.2
v 0.4 1.6 -0.2
v 0.4 1.7 -0.2
v 0.5 1.5 -0.2
v 0.5 1.6 -0.2
v 0.6 1.2 -0.2
v 0.6 1.4 -0.2
v 0.7 1.2 -0.2
v 0.7 1.5 -0.2
v 0.7 1.8 -0.2
v 0.7 1.9 -0.2
v -0.2 1.8 -0.3
v -0.2 1.9 -0.3
v -0.1 1.5 -0.3
v -0.1 1.6 -0.3
v -0.1 1.8 -0.3
v -0.1 1.9 -0.3
v 0 1.3 -0.3
v 0 1.4 -0.3
v 0 1.6 -0.3
v 0 1.7 -0.3
v 0.1 1.5 -0.3
v 0.1 1.6 -0.3
v 0.2 1.6 -0.3
v 0.2 1.7 -0.3
v 0.4 1.6 -0.3
v 0.4 1.7 -0.3
v 0.5 1.5 -0.3
v 0.5 1.6 -0.3
v 0.6 1.3 -0.3
v 0.6 1.4 -0.3
v 0.6 1.6 -0.3
v 0.6 1.7 -0.3
v 0.7 1.5 -0.3
v 0.7 1.6 -0.3
v 0.7 1.8 -0.3
v 0.7 1.9 -0.3
v 0.8 1.8 -0.3
v 0.8 1.9 -0.3
v -0.2 1.9 -0.4
v -0.2 2 -0.4
v -0.1 0.6 -0.4
v -0.1 0.7 -0.4
v -0.1 1.1 -0.4
v -0.1 1.3 -0.4
v -0.1 1.9 -0.4
v -0.1 2 -0.4
v 0 0.7 -0.4
v 0 0.8 -0.4
v 0 1.9 -0.4
v 0 2 -0.4
v 0 2.2 -0.4
v 0.1 0.8 -0.4
v 0.1 0.9 -0.4
v 0.2 0.7 -0.4
v 0.2 0.8 -0.4
v 0.2 0.9 -0.4
v 0.2 1.3 -0.4
v 0.2 2.1 -0.4
v 0.2 2.2 -0.4
v 0.4 0.7 -0.4
v 0.4 0.8 -0.4
v 0.4 0.9 -0.4
v 0.4 1.3 -0.4
v 0.4 2.1 -0.4
v 0.4 2.2 -0.4
v 0.5 0.8 -0.4
v 0.5 0.9 -0.4
v 0.6 0.7 -0.4
v 0.6 0.8 -0.4
v 0.6 1.9 -0.4
v 0.6 2 -0.4
v 0.6 2.2 -0.4
v 0.7 0.6 -0.4
v 0.7 0.7 -0.4
v 0.7 1.3 -0.4
v 0.7 1.9 -0.4
v 0.7 2 -0.4
v 0.8 1.9 -0.4
v 0.8 2 -0.4
v 0 0 -0.5
v 0 0.2 -0.5
v 0 0.6 -0.5
v 0.2 0 -0.5
v 0.2 0.2 -0.5
v 0.2 0.6 -0.5
v 0.4 0 -0.5
v 0.4 0.2 -0.5
v 0.4 0.6 -0.5
v 0.6 0 -0.5
v 0.6 0.2 -0.5
v 0.6 0.6 -0.5
v 0.7 0.5 -0.5
v 0.7 0.6 -0.5
v 0.7 0.7 -0.5
v 0.7 1.3 -0.5
v 0.9 0.5 -0.5
v 0.9 0.7 -0.5
v 0.9 1.3 -0.5
v -0.2 1.5 -0.6
v -0.2 1.7 -0.6
v -0.1 1.5 -0.6
v -0.1 1.7 -0.6
v 0.7 1.5 -0.6
v 0.7 1.7 -0.6
v 0.8 1.5 -0.6
v 0.8 1.7 -0.6
v -0.1 1.2 -0.3
v -0.1 1.3 -0.3
v 0 1.2 -0.3
v 0 1.3 -0.3
v 0.6 1.2 -0.3
v 0.6 1.3 -0.3
v 0.7 1.2 -0.3
v 0.7 1.3 -0.3
v -0.3 1.1 -0.7
v -0.3 1.3 -0.7
v -0.2 1.5 -0.7
v -0.2 1.7 -0.7
v -0.1 1.1 -0.7
v -0.1 1.3 -0.7
v -0.1 1.5 -0.7
v -0.1 1.7 -0.7
v 0 0 -0.7
v 0 0.2 -0.7
v 0 0.6 -0.7
v 0.2 0 -0.7
v 0.2 0.2 -0.7
v 0.2 0.6 -0.7
v 0.4 0 -0.7
v 0.4 0.2 -0.7
v 0.4 0.6 -0.7
v 0.6 0 -0.7
v 0.6 0.2 -0.7
v 0.6 0.6 -0.7
v 0.7 0.5 -0.7
v 0.7 0.6 -0.7
v 0.7 0.7 -0.7
v 0.7 1.3 -0.7
v 0.7 1.5 -0.7
v 0.7 1.7 -0.7
v 0.8 1.5 -0.7
v 0.8 1.7 -0.7
v 0.9 0.5 -0.7
v 0.9 0.7 -0.7
v 0.9 1.3 -0.7
v -0.2 1.9 -0.8
v -0.2 2 -0.8
v -0.1 0.6 -0.8
v -0.1 0.7 -0.8
v -0.1 1.3 -0.8
v -0.1 1.9 -0.8
v -0.1 2 -0.8
v 0 1.9 -0.8
v 0 2 -0.8
v 0 2.2 -0.8
v 0.2 2.1 -0.8
v 0.2 2.2 -0.8
v 0.4 2.1 -0.8
v 0.4 2.2 -0.8
v 0.6 1.9 -0.8
v 0.6 2 -0.8
v 0.6 2.2 -0.8
v 0.7 0.6 -0.8
v 0.7 0.7 -0.8
v 0.7 1.3 -0.8
v 0.7 1.9 -0.8
v 0.7 2 -0.8
v 0.8 1.9 -0.8
v 0.8 2 -0.8
v -0.2 1.8 -0.9
v -0.2 1.9 -0.9
v -0.1 1.3 -0.9
v -0.1 1.8 -0.9
v -0.1 1.9 -0.9
v 0.7 1.3 -0.9
v 0.7 1.8 -0.9
v 0.7 1.9 -0.9
v 0.8 1.8 -0.9
v 0.8 1.9 -0.9
v -0.1 1.8 -1
v -0.1 1.9 -1
v 0.7 1.8 -1
v 0.7 1.9 -1
v 0 0 -0.5
v 0.2 0 -0.5
v 0.4 0 -0.5
v 0.6 0 -0.5
v 0 0 -0.7
v 0.2 0 -0.7
v 0.4 0 -0.7
v 0.6 0 -0.7
v 0.7 0.5 -0.5
v 0.9 0.5 -0.5
v 0.7 0.5 -0.7
v 0.9 0.5 -0.7
v -0.1 0.6 -0.4
v 0.7 0.6 -0.4
v 0 0.6 -0.5
v 0.2 0.6 -0.5
v 0.4 0.6 -0.5
v 0.6 0.6 -0.5
v 0.7 0.6 -0.5
v 0 0.6 -0.7
v 0.2 0.6 -0.7
v 0.4 0.6 -0.7
v 0.6 0.6 -0.7
v 0.7 0.6 -0.7
v -0.1 0.6 -0.8
v 0.7 0.6 -0.8
v -0.3 1.1 0.1
v -0.1 1.1 0.1
v -0.3 1.1 -0.1
v -0.1 1.1 -0.1
v -0.1 1.1 -0.4
v -0.3 1.1 -0.7
v -0.1 1.1 -0.7
v -0.1 1.2 -0.2
v 0 1.2 -0.2
v 0.6 1.2 -0.2
v 0.7 1.2 -0.2
v -0.1 1.2 -0.3
v 0 1.2 -0.3
v 0.6 1.2 -0.3
v 0.7 1.2 -0.3
v -0.1 1.3 -0.3
v 0 1.3 -0.3
v 0.6 1.3 -0.3
v 0.7 1.3 -0.3
v -0.1 1.3 -0.4
v 0.2 1.3 -0.4
v 0.4 1.3 -0.4
v 0.7 1.3 -0.4
v -0.1 1.3 -0.8
v 0.7 1.3 -0.8
v -0.1 1.3 -0.9
v 0.7 1.3 -0.9
v 0 1.4 -0.2
v 0.6 1.4 -0.2
v 0 1.4 -0.3
v 0.6 1.4 -0.3
v -0.2 1.5 -0.6
v -0.1 1.5 -0.6
v 0.7 1.5 -0.6
v 0.8 1.5 -0.6
v -0.2 1.5 -0.7
v -0.1 1.5 -0.7
v 0.7 1.5 -0.7
v 0.8 1.5 -0.7
v -0.1 1.8 -0.2
v 0.7 1.8 -0.2
v -0.2 1.8 -0.3
v -0.1 1.8 -0.3
v 0.7 1.8 -0.3
v 0.8 1.8 -0.3
v -0.2 1.8 -0.9
v -0.1 1.8 -0.9
v 0.7 1.8 -0.9
v 0.8 1.8 -0.9
v -0.1 1.8 -1
v 0.7 1.8 -1
v -0.3 1.3 0.1
v -0.1 1.3 0.1
v -0.3 1.3 -0.1
v -0.1 1.3 -0.1
v -0.1 1.3 -0.2
v -0.1 1.3 -0.3
v 0.7 1.3 -0.5
v 0.9 1.3 -0.5
v -0.3 1.3 -0.7
v -0.1 1.3 -0.7
v 0.7 1.3 -0.7
v 0.9 1.3 -0.7
v -0.1 1.5 -0.2
v 0.1 1.5 -0.2
v 0.5 1.5 -0.2
v 0.7 1.5 -0.2
v -0.1 1.5 -0.3
v 0.1 1.5 -0.3
v 0.5 1.5 -0.3
v 0.7 1.5 -0.3
v 0.1 1.6 -0.2
v 0.2 1.6 -0.2
v 0.4 1.6 -0.2
v 0.5 1.6 -0.2
v 0.1 1.6 -0.3
v 0.2 1.6 -0.3
v 0.4 1.6 -0.3
v 0.5 1.6 -0.3
v 0.2 1.7 -0.2
v 0.4 1.7 -0.2
v 0.2 1.7 -0.3
v 0.4 1.7 -0.3
v -0.2 1.7 -0.6
v -0.1 1.7 -0.6
v 0.7 1.7 -0.6
v 0.8 1.7 -0.6
v -0.2 1.7 -0.7
v -0.1 1.7 -0.7
v 0.7 1.7 -0.7
v 0.8 1.7 -0.7
v -0.1 1.9 -0.2
v 0.7 1.9 -0.2
v -0.2 1.9 -0.3
v -0.1 1.9 -0.3
v 0.7 1.9 -0.3
v 0.8 1.9 -0.3
v -0.2 1.9 -0.4
v -0.1 1.9 -0.4
v 0 1.9 -0.4
v 0.6 1.9 -0.4
v 0.7 1.9 -0.4
v 0.8 1.9 -0.4
v -0.2 1.9 -0.8
v -0.1 1.9 -0.8
v 0 1.9 -0.8
v 0.6 1.9 -0.8
v 0.7 1.9 -0.8
v 0.8 1.9 -0.8
v -0.2 1.9 -0.9
v -0.1 1.9 -0.9
v 0.7 1.9 -0.9
v 0.8 1.9 -0.9
v -0.1 1.9 -1
v 0.7 1.9 -1
v -0.2 2 -0.4
v -0.1 2 -0.4
v 0.7 2 -0.4
v 0.8 2 -0.4
v -0.2 2 -0.8
v -0.1 2 -0.8
v 0.7 2 -0.8
v 0.8 2 -0.8
v 0.2 2.1 -0.4
v 0.4 2.1 -0.4
v 0.2 2.1 -0.8
v 0.4 2.1 -0.8
v 0 2.2 -0.4
v 0.2 2.2 -0.4
v 0.4 2.2 -0.4
v 0.6 2.2 -0.4
v 0 2.2 -0.8
v 0.2 2.2 -0.8
v 0.4 2.2 -0.8
v 0.6 2.2 -0.8

# faces
f 4/6/1 2/6/1 1/6/1
f 5/3/1 3/3/1 2/3/1
f 5/6/1 2/6/1 4/6/1
f 6/3/1 3/3/1 5/3/1
f 9/6/1 8/6/1 7/6/1
f 10/6/1 8/6/1 9/6/1
f 13/4/1 12/4/1 11/4/1
f 14/4/1 12/4/1 13/4/1
f 15/4/1 12/4/1 14/4/1
f 16/4/1 12/4/1 15/4/1
f 17/4/1 15/4/1 14/4/1
f 18/4/1 15/4/1 17/4/1
f 21/8/1 20/8/1 19/8/1
f 22/8/1 20/8/1 21/8/1
f 23/3/1 22/3/1 21/3/1
f 24/3/1 22/3/1 23/3/1
f 27/3/1 22/3/1 24/3/1
f 28/3/1 22/3/1 27/3/1
f 30/1/1 28/1/1 27/1/1
f 30/1/1 27/1/1 26/1/1
f 31/6/1 29/6/1 28/6/1
f 31/1/1 28/1/1 30/1/1
f 32/9/1 26/9/1 25/9/1
f 33/1/1 30/1/1 26/1/1
f 33/9/1 26/9/1 32/9/1
f 34/1/1 30/1/1 33/1/1
f 35/6/1 31/6/1 30/6/1
f 35/1/1 30/1/1 34/1/1
f 36/6/1 31/6/1 35/6/1
f 37/1/1 34/1/1 33/1/1
f 38/6/1 35/6/1 34/6/1
f 38/1/1 34/1/1 37/1/1
f 39/6/1 38/6/1 37/6/1
f 39/6/1 35/6/1 38/6/1
f 40/6/1 31/6/1 36/6/1
f 42/6/1 39/6/1 37/6/1
f 42/6/1 40/6/1 39/6/1
f 43/6/1 29/6/1 31/6/1
f 43/6/1 31/6/1 40/6/1
f 43/6/1 40/6/1 42/6/1
f 45/4/1 42/4/1 41/4/1
f 46/4/1 42/4/1 45/4/1
f 47/4/1 44/4/1 43/4/1
f 48/4/1 44/4/1 47/4/1
f 51/7/1 50/7/1 49/7/1
f 52/7/1 50/7/1 51/7/1
f 53/8/1 52/8/1 51/8/1
f 54/8/1 52/8/1 53/8/1
f 57/5/1 56/5/1 55/5/1
f 58/5/1 56/5/1 57/5/1
f 59/4/1 58/4/1 57/4/1
f 60/4/1 58/4/1 59/4/1
f 63/9/1 62/9/1 61/9/1
f 64/9/1 62/9/1 63/9/1
f 67/6/1 66/6/1 65/6/1
f 68/6/1 66/6/1 67/6/1
f 71/7/1 70/7/1 69/7/1
f 72/7/1 70/7/1 71/7/1
f 73/8/1 72/8/1 71/8/1
f 74/8/1 72/8/1 73/8/1
f 77/4/1 76/4/1 75/4/1
f 78/4/1 76/4/1 77/4/1
f 81/9/1 80/9/1 79/9/1
f 82/9/1 81/9/1 79/9/1
f 83/9/1 81/9/1 82/9/1
f 86/6/1 85/6/1 84/6/1
f 87/6/1 85/6/1 86/6/1
f 90/4/1 89/4/1 88/4/1
f 91/4/1 89/4/1 90/4/1
f 93/3/2 94/3/2 95/3/2
f 95/3/2 94/3/2 96/3/2
f 92/6/2 93/6/2 97/6/2
f 93/3/2 95/3/2 98/3/2
f 97/6/2 93/6/2 98/6/2
f 98/3/2 95/3/2 99/3/2
f 96/3/2 94/3/2 100/3/2
f 100/3/2 94/3/2 101/3/2
f 102/4/2 103/4/2 104/4/2
f 104/4/2 103/4/2 105/4/2
f 106/9/2 107/9/2 108/9/2
f 106/9/2 108/9/2 109/9/2
f 109/9/2 108/9/2 110/9/2
f 111/7/2 112/7/2 113/7/2
f 113/7/2 112/7/2 114/7/2
f 113/8/2 114/8/2 115/8/2
f 115/8/2 114/8/2 116/8/2
f 117/4/2 118/4/2 119/4/2
f 119/4/2 118/4/2 120/4/2
f 121/6/2 122/6/2 123/6/2
f 123/6/2 122/6/2 124/6/2
f 125/9/2 126/9/2 127/9/2
f 127/9/2 126/9/2 128/9/2
f 129/7/2 130/7/2 131/7/2
f 131/7/2 130/7/2 132/7/2
f 131/8/2 132/8/2 133/8/2
f 133/8/2 132/8/2 134/8/2
f 135/5/2 136/5/2 137/5/2
f 137/5/2 136/5/2 138/5/2
f 137/4/2 138/4/2 139/4/2
f 139/4/2 138/4/2 140/4/2
f 141/8/2 142/8/2 145/8/2
f 145/8/2 142/8/2 146/8/2
f 143/8/2 144/8/2 147/8/2
f 147/8/2 144/8/2 148/8/2
f 149/9/2 150/9/2 151/9/2
f 145/3/2 146/3/2 152/3/2
f 152/3/2 146/3/2 153/3/2
f 147/3/2 148/3/2 154/3/2
f 154/3/2 148/3/2 155/3/2
f 152/1/2 153/1/2 157/1/2
f 154/1/2 155/1/2 157/1/2
f 153/1/2 154/1/2 157/1/2
f 151/1/2 152/1/2 157/1/2
f 155/6/2 156/6/2 158/6/2
f 157/1/2 155/1/2 158/1/2
f 149/9/2 151/9/2 159/9/2
f 151/1/2 157/1/2 160/1/2
f 159/9/2 151/9/2 160/9/2
f 160/1/2 157/1/2 161/1/2
f 157/6/2 158/6/2 162/6/2
f 161/1/2 157/1/2 162/1/2
f 162/6/2 158/6/2 163/6/2
f 160/1/2 161/1/2 164/1/2
f 161/6/2 162/6/2 165/6/2
f 164/1/2 161/1/2 165/1/2
f 164/6/2 165/6/2 166/6/2
f 165/6/2 162/6/2 166/6/2
f 163/6/2 158/6/2 167/6/2
f 164/6/2 166/6/2 169/6/2
f 166/6/2 167/6/2 169/6/2
f 158/6/2 156/6/2 170/6/2
f 167/6/2 158/6/2 170/6/2
f 169/6/2 167/6/2 170/6/2
f 168/4/2 169/4/2 172/4/2
f 172/4/2 169/4/2 173/4/2
f 170/4/2 171/4/2 174/4/2
f 174/4/2 171/4/2 175/4/2
f 176/6/2 177/6/2 178/6/2
f 178/6/2 177/6/2 179/6/2
f 180/4/2 181/4/2 182/4/2
f 182/4/2 181/4/2 183/4/2
f 183/4/2 181/4/2 184/4/2
f 184/4/2 181/4/2 185/4/2
f 183/4/2 184/4/2 186/4/2
f 186/4/2 184/4/2 187/4/2
f 188/6/2 189/6/2 190/6/2
f 190/6/2 189/6/2 191/6/2
f 190/3/2 191/3/2 192/3/2
f 192/3/2 191/3/2 193/3/2
f 196/6/3 195/6/3 194/6/3
f 197/6/3 195/6/3 196/6/3
f 203/9/3 199/9/3 198/9/3
f 203/9/3 200/9/3 199/9/3
f 204/9/3 200/9/3 203/9/3
f 205/9/3 200/9/3 204/9/3
f 207/9/3 205/9/3 204/9/3
f 207/9/3 206/9/3 205/9/3
f 208/9/3 206/9/3 207/9/3
f 210/9/3 207/9/3 204/9/3
f 210/6/3 209/6/3 208/6/3
f 210/6/3 208/6/3 207/6/3
f 211/6/3 209/6/3 210/6/3
f 212/6/3 209/6/3 211/6/3
f 213/9/3 210/9/3 204/9/3
f 213/9/3 211/9/3 210/9/3
f 214/9/3 211/9/3 213/9/3
f 216/9/3 213/9/3 204/9/3
f 217/9/3 216/9/3 215/9/3
f 218/9/3 213/9/3 216/9/3
f 218/9/3 216/9/3 217/9/3
f 219/4/3 202/4/3 201/4/3
f 220/4/3 202/4/3 219/4/3
f 225/4/3 222/4/3 221/4/3
f 226/4/3 222/4/3 225/4/3
f 229/1/3 224/1/3 223/1/3
f 229/6/3 225/6/3 224/6/3
f 230/6/3 225/6/3 229/6/3
f 231/1/3 229/1/3 223/1/3
f 232/10/3 230/10/3 229/10/3
f 232/1/3 229/1/3 231/1/3
f 233/10/3 230/10/3 232/10/3
f 234/6/3 225/6/3 230/6/3
f 234/10/3 230/10/3 233/10/3
f 236/6/3 225/6/3 234/6/3
f 238/10/3 236/10/3 235/10/3
f 239/1/3 228/1/3 227/1/3
f 240/1/3 228/1/3 239/1/3
f 241/1/3 238/1/3 237/1/3
f 241/10/3 236/10/3 238/10/3
f 242/6/3 225/6/3 236/6/3
f 242/10/3 236/10/3 241/10/3
f 243/1/3 241/1/3 237/1/3
f 244/6/3 242/6/3 241/6/3
f 244/1/3 241/1/3 243/1/3
f 245/6/3 225/6/3 242/6/3
f 245/6/3 242/6/3 244/6/3
f 247/4/3 246/4/3 245/4/3
f 248/4/3 246/4/3 247/4/3
f 255/4/3 250/4/3 249/4/3
f 256/4/3 250/4/3 255/4/3
f 257/3/3 254/3/3 253/3/3
f 257/8/3 252/8/3 251/8/3
f 257/3/3 253/3/3 252/3/3
f 258/3/3 254/3/3 257/3/3
f 262/8/3 258/8/3 257/8/3
f 262/3/3 254/3/3 258/3/3
f 263/3/3 254/3/3 262/3/3
f 264/8/3 257/8/3 251/8/3
f 264/8/3 262/8/3 257/8/3
f 265/2/3 263/2/3 262/2/3
f 265/8/3 262/8/3 264/8/3
f 266/3/3 254/3/3 263/3/3
f 266/2/3 263/2/3 265/2/3
f 267/3/3 254/3/3 266/3/3
f 268/4/3 261/4/3 260/4/3
f 269/4/3 261/4/3 268/4/3
f 270/10/3 265/10/3 264/10/3
f 270/8/3 264/8/3 251/8/3
f 271/2/3 267/2/3 266/2/3
f 271/10/3 265/10/3 270/10/3
f 271/2/3 266/2/3 265/2/3
f 272/2/3 267/2/3 271/2/3
f 273/2/3 267/2/3 272/2/3
f 274/4/3 268/4/3 260/4/3
f 276/8/3 271/8/3 270/8/3
f 276/2/3 272/2/3 271/2/3
f 277/3/3 273/3/3 272/3/3
f 277/2/3 272/2/3 276/2/3
f 278/8/3 270/8/3 251/8/3
f 278/8/3 276/8/3 270/8/3
f 279/3/3 277/3/3 276/3/3
f 279/8/3 276/8/3 278/8/3
f 280/5/3 260/5/3 259/5/3
f 281/4/3 275/4/3 274/4/3
f 281/5/3 260/5/3 280/5/3
f 281/4/3 274/4/3 260/4/3
f 282/4/3 275/4/3 281/4/3
f 283/8/3 278/8/3 251/8/3
f 284/3/3 279/3/3 278/3/3
f 284/8/3 278/8/3 283/8/3
f 285/3/3 277/3/3 279/3/3
f 285/3/3 279/3/3 284/3/3
f 285/3/3 273/3/3 277/3/3
f 288/4/3 287/4/3 286/4/3
f 289/4/3 287/4/3 288/4/3
f 293/7/3 291/7/3 290/7/3
f 294/8/3 292/8/3 291/8/3
f 294/7/3 291/7/3 293/7/3
f 295/8/3 292/8/3 294/8/3
f 299/7/3 297/7/3 296/7/3
f 300/8/3 298/8/3 297/8/3
f 300/7/3 297/7/3 299/7/3
f 301/8/3 298/8/3 300/8/3
f 306/6/3 303/6/3 302/6/3
f 306/6/3 304/6/3 303/6/3
f 307/3/3 305/3/3 304/3/3
f 307/6/3 304/6/3 306/6/3
f 308/3/3 305/3/3 307/3/3
f 311/6/3 310/6/3 309/6/3
f 312/6/3 310/6/3 311/6/3
f 315/6/3 314/6/3 313/6/3
f 316/6/3 314/6/3 315/6/3
f 317/9/4 318/9/4 319/9/4
f 319/9/4 318/9/4 320/9/4
f 321/9/4 322/9/4 323/9/4
f 323/9/4 322/9/4 324/9/4
f 325/3/4 326/3/4 329/3/4
f 329/3/4 326/3/4 330/3/4
f 327/6/4 328/6/4 331/6/4
f 331/6/4 328/6/4 332/6/4
f 333/7/4 334/7/4 336/7/4
f 334/8/4 335/8/4 337/8/4
f 336/7/4 334/7/4 337/7/4
f 337/8/4 335/8/4 338/8/4
f 339/7/4 340/7/4 342/7/4
f 340/8/4 341/8/4 343/8/4
f 342/7/4 340/7/4 343/7/4
f 343/8/4 341/8/4 344/8/4
f 349/6/4 350/6/4 351/6/4
f 351/6/4 350/6/4 352/6/4
f 345/6/4 346/6/4 353/6/4
f 346/6/4 347/6/4 353/6/4
f 347/3/4 348/3/4 354/3/4
f 353/6/4 347/6/4 354/6/4
f 354/3/4 348/3/4 355/3/4
f 356/4/4 357/4/4 361/4/4
f 361/4/4 357/4/4 362/4/4
f 364/4/4 365/4/4 366/4/4
f 366/4/4 365/4/4 367/4/4
f 364/4/4 366/4/4 368/4/4
f 363/5/4 364/5/4 370/5/4
f 368/4/4 369/4/4 371/4/4
f 370/5/4 364/5/4 371/5/4
f 364/4/4 368/4/4 371/4/4
f 371/4/4 369/4/4 372/4/4
f 358/8/4 359/8/4 373/8/4
f 359/3/4 360/3/4 374/3/4
f 373/8/4 359/8/4 374/8/4
f 374/3/4 360/3/4 375/3/4
f 376/4/4 377/4/4 378/4/4
f 378/4/4 377/4/4 379/4/4
f 380/4/4 381/4/4 383/4/4
f 383/4/4 381/4/4 384/4/4
f 382/6/4 383/6/4 385/6/4
f 385/6/4 383/6/4 386/6/4
f 386/4/4 387/4/4 388/4/4
f 388/4/4 387/4/4 389/4/4
f 390/4/4 391/4/4 392/4/4
f 392/4/4 391/4/4 393/4/4
f 398/7/5 395/7/5 394/7/5
f 399/7/5 395/7/5 398/7/5
f 400/7/5 397/7/5 396/7/5
f 401/7/5 397/7/5 400/7/5
f 404/6/5 403/6/5 402/6/5
f 405/6/5 403/6/5 404/6/5
f 408/8/5 407/8/5 406/8/5
f 409/8/5 407/8/5 408/8/5
f 410/8/5 407/8/5 409/8/5
f 411/8/5 407/8/5 410/8/5
f 412/8/5 407/8/5 411/8/5
f 413/8/5 408/8/5 406/8/5
f 414/8/5 410/8/5 409/8/5
f 415/8/5 410/8/5 414/8/5
f 416/8/5 412/8/5 411/8/5
f 417/8/5 412/8/5 416/8/5
f 418/8/5 415/8/5 414/8/5
f 418/8/5 413/8/5 406/8/5
f 418/8/5 417/8/5 416/8/5
f 418/8/5 416/8/5 415/8/5
f 418/8/5 414/8/5 413/8/5
f 419/8/5 417/8/5 418/8/5
f 422/6/5 421/6/5 420/6/5
f 423/6/5 421/6/5 422/6/5
f 424/3/5 423/3/5 422/3/5
f 425/3/5 424/3/5 422/3/5
f 426/3/5 424/3/5 425/3/5
f 431/9/5 428/9/5 427/9/5
f 432/9/5 428/9/5 431/9/5
f 433/9/5 430/9/5 429/9/5
f 434/9/5 430/9/5 433/9/5
f 439/1/5 436/1/5 435/1/5
f 439/1/5 438/1/5 437/1/5
f 439/1/5 437/1/5 436/1/5
f 440/1/5 438/1/5 439/1/5
f 441/1/5 438/1/5 440/1/5
f 442/1/5 438/1/5 441/1/5
f 445/6/5 444/6/5 443/6/5
f 446/6/5 444/6/5 445/6/5
f 449/9/5 448/9/5 447/9/5
f 450/9/5 448/9/5 449/9/5
f 455/6/5 452/6/5 451/6/5
f 456/6/5 452/6/5 455/6/5
f 457/6/5 454/6/5 453/6/5
f 458/6/5 454/6/5 457/6/5
f 462/4/5 460/4/5 459/4/5
f 463/4/5 460/4/5 462/4/5
f 465/4/5 462/4/5 461/4/5
f 466/4/5 462/4/5 465/4/5
f 467/4/5 464/4/5 463/4/5
f 468/4/5 464/4/5 467/4/5
f 469/4/5 467/4/5 466/4/5
f 470/4/5 467/4/5 469/4/5
f 471/6/6 472/6/6 473/6/6
f 473/6/6 472/6/6 474/6/6
f 473/3/6 474/3/6 475/3/6
f 473/3/6 475/3/6 476/3/6
f 473/3/6 476/3/6 479/3/6
f 479/3/6 476/3/6 480/3/6
f 477/3/6 478/3/6 481/3/6
f 481/3/6 478/3/6 482/3/6
f 483/9/6 484/9/6 487/9/6
f 487/9/6 484/9/6 488/9/6
f 485/9/6 486/9/6 489/9/6
f 489/9/6 486/9/6 490/9/6
f 491/9/6 492/9/6 495/9/6
f 495/9/6 492/9/6 496/9/6
f 493/9/6 494/9/6 497/9/6
f 497/9/6 494/9/6 498/9/6
f 499/6/6 500/6/6 501/6/6
f 501/6/6 500/6/6 502/6/6
f 503/6/6 504/6/6 507/6/6
f 507/6/6 504/6/6 508/6/6
f 505/6/6 506/6/6 509/6/6
f 509/6/6 506/6/6 510/6/6
f 511/4/6 512/4/6 514/4/6
f 514/4/6 512/4/6 515/4/6
f 513/4/6 514/4/6 517/4/6
f 515/4/6 516/4/6 517/4/6
f 514/4/6 515/4/6 517/4/6
f 517/4/6 516/4/6 518/4/6
f 518/4/6 516/4/6 519/4/6
f 519/4/6 516/4/6 520/4/6
f 520/4/6 516/4/6 521/4/6
f 521/4/6 516/4/6 522/4/6
f 518/4/6 519/4/6 524/4/6
f 524/4/6 519/4/6 525/4/6
f 520/4/6 521/4/6 526/4/6
f 526/4/6 521/4/6 527/4/6
f 524/4/6 525/4/6 529/4/6
f 527/4/6 528/4/6 529/4/6
f 526/4/6 527/4/6 529/4/6
f 525/4/6 526/4/6 529/4/6
f 523/4/6 524/4/6 529/4/6
f 529/4/6 528/4/6 530/4/6
f 530/4/6 528/4/6 531/4/6
f 531/4/6 528/4/6 532/4/6
f 530/4/6 531/4/6 533/4/6
f 533/4/6 531/4/6 534/4/6
f 535/4/6 536/4/6 539/4/6
f 539/4/6 536/4/6 540/4/6
f 537/4/6 538/4/6 541/4/6
f 541/4/6 538/4/6 542/4/6
f 543/4/6 544/4/6 545/4/6
f 545/4/6 544/4/6 546/4/6
f 547/4/6 548/4/6 551/4/6
f 551/4/6 548/4/6 552/4/6
f 549/4/6 550/4/6 553/4/6
f 553/4/6 550/4/6 554/4/6
